<?xml version="1.0" encoding="UTF-8"?>
<svg version="1.1" xmlns="http://www.w3.org/2000/svg" width="600" height="600">
<path d="M0 0 C198 0 396 0 600 0 C600 198 600 396 600 600 C402 600 204 600 0 600 C0 402 0 204 0 0 Z " fill="#000000" transform="translate(0,0)"/>
<path d="M0 0 C0 61.38 0 122.76 0 186 C-7.59 186 -15.18 186 -23 186 C-23 159.27 -23 132.54 -23 105 C-42.47 105.33 -61.94 105.66 -82 106 C-70.102149 117.16555038 -70.102149 117.16555038 -57.5 127.5 C-51.55935451 133.29103847 -50.25314992 137.87013659 -49.99996948 145.96365356 C-49.93606404 152.99535249 -50.36099868 159.99982243 -51 167 C-59.28835966 161.35355498 -66.00210076 154.18536173 -73 147.0625 C-75.45489791 144.57080422 -77.91303646 142.08237108 -80.375 139.59765625 C-80.96531006 139.0017569 -81.55562012 138.40585754 -82.16381836 137.79190063 C-85.66055036 134.28296698 -89.24415071 130.95656429 -93.0234375 127.75170898 C-98.068287 123.28076096 -102.70481556 118.3422265 -107.43652344 113.54296875 C-112.58704344 108.3256502 -117.74632423 103.18108116 -123.34375 98.4375 C-124.97276716 97.02363605 -126.49371717 95.54302144 -128 94 C-126.66420352 91.02363795 -125.20765397 88.96048142 -122.875 86.6875 C-122.33617187 86.15511719 -121.79734375 85.62273437 -121.2421875 85.07421875 C-119.333301 83.30833246 -117.38803932 81.61740443 -115.4140625 79.92578125 C-110.18759476 75.37270287 -105.36392601 70.43370974 -100.5 65.5 C-90.48243603 55.33871201 -90.48243603 55.33871201 -86.0625 51.5625 C-80.57182811 46.86017534 -75.57328221 41.64221713 -70.5 36.5 C-68.51349764 34.48650537 -66.52449591 32.47557018 -64.53125 30.46875 C-63.81099388 29.74257225 -63.81099388 29.74257225 -63.07618713 29.00172424 C-60.39761802 26.32361639 -57.65232418 23.79852668 -54.74609375 21.37109375 C-51.87594528 18.93969409 -49.68732584 16.39534618 -47.44140625 13.37890625 C-32.36030955 -5.34716851 -27.81017096 0 0 0 Z " fill="#FCFCFC" transform="translate(252,207)"/>
<path d="M0 0 C26.07 0 52.14 0 79 0 C79 61.71 79 123.42 79 187 C52.93 187 26.86 187 0 187 C0 140.14 0 93.28 0 45 C7.92 45 15.84 45 24 45 C24 84.27 24 123.54 24 164 C34.23 164 44.46 164 55 164 C55 117.14 55 70.28 55 22 C36.85 22 18.7 22 0 22 C0 14.74 0 7.48 0 0 Z " fill="#148FA7" transform="translate(260,207)"/>
<path d="M0 0 C30.91219891 -3.12876507 30.91219891 -3.12876507 39.77253723 3.77189636 C46.04532376 9.25806388 51.36244508 15.63993155 56.57910156 22.11376953 C58.64735593 24.57957259 60.67560206 26.66540178 63.1171875 28.74609375 C64.05195923 29.54563477 64.05195923 29.54563477 65.00561523 30.36132812 C66.46598504 31.56123046 67.96048688 32.71991474 69.47290039 33.85351562 C73.43122314 37.15761182 75.69750241 39.46010664 76.71142578 44.62158203 C76.99144624 48.78162126 76.78887011 52.90478811 76.5625 57.0625 C76.51727114 58.51484887 76.47622129 59.96733419 76.43945312 61.41992188 C76.34111465 64.94948882 76.18632421 68.47385417 76 72 C72 70 72 70 59 57 C59 80.76 59 104.52 59 129 C63.95 124.05 68.9 119.1 74 114 C74.66 114 75.32 114 76 114 C78.7738311 142.31441434 78.7738311 142.31441434 72.71875 150.375 C69.4970622 153.80839871 65.94345006 156.70593997 62.13134766 159.45874023 C56.83093697 163.29167181 52.36546998 167.34977586 48.4765625 172.62109375 C43.43853748 179.12771433 38.40626767 185.5174739 29.84570312 186.82177734 C19.83144203 187.77248055 10.06245336 186.71308725 0 186 C0 169.5 0 153 0 136 C7.92 136 15.84 136 24 136 C24 144.58 24 153.16 24 162 C30.26835234 157.57027642 30.26835234 157.57027642 34.27123547 150.90495968 C34.28108125 150.03357137 34.29092703 149.16218306 34.30107117 148.26438904 C34.31682693 147.26494766 34.3325827 146.26550629 34.34881592 145.23577881 C34.35576477 144.13502014 34.36271362 143.03426147 34.36987305 141.90014648 C34.38462173 140.7438826 34.39937042 139.58761871 34.41456604 138.39631653 C34.45923106 134.55458475 34.4873536 130.71300559 34.51171875 126.87109375 C34.52581756 124.90483378 34.52581756 124.90483378 34.54020119 122.89885139 C34.57871158 117.38722292 34.61191728 111.87560981 34.63057232 106.36387539 C34.65733654 98.47585068 34.71474794 90.5894731 34.81633729 82.7020449 C34.88537277 77.15116115 34.91955606 71.60071332 34.92813712 66.0494104 C34.93412344 62.73677445 34.95939584 59.4262128 35.01270103 56.11395073 C35.06876395 52.4099281 35.06781717 48.70994421 35.0534668 45.00561523 C35.08268219 43.91902618 35.11189758 42.83243713 35.14199829 41.71292114 C35.04818302 35.44815985 34.00990866 32.34284107 29.55915833 27.81214905 C27.41672557 25.90254926 25.56345243 24.28172622 23 23 C23 29.93 23 36.86 23 44 C15.41 44 7.82 44 0 44 C0 29.48 0 14.96 0 0 Z " fill="#FCFCFC" transform="translate(347,207)"/>
<path d="M0 0 C42.9 0 85.8 0 130 0 C127.90416837 4.19166326 125.35933822 6.90887742 122.08154297 10.14550781 C121.17402283 11.05346603 121.17402283 11.05346603 120.24816895 11.97976685 C118.25088001 13.9756645 116.24660442 15.96438799 114.2421875 17.953125 C112.85455498 19.33702668 111.4673639 20.72137112 110.08059692 22.10614014 C106.432074 25.7470322 102.77758448 29.38187778 99.12182617 33.01550293 C95.39140211 36.72545688 91.66664357 40.44108927 87.94140625 44.15625 C80.63314253 51.44307344 73.31856384 58.72352265 66 66 C61.79479193 64.35508462 58.97303415 61.25415446 55.85449219 58.11328125 C55.24918671 57.51148041 54.64388123 56.90967957 54.02023315 56.28964233 C52.02405788 54.3022587 50.03527397 52.3076617 48.046875 50.3125 C46.66282932 48.92980135 45.27848685 47.54739973 43.89385986 46.1652832 C40.99563595 43.27000678 38.10105825 40.37114585 35.20898438 37.46972656 C31.49424327 33.74356991 27.77056823 30.02649113 24.04413986 26.31202698 C21.18561661 23.46071422 18.33185367 20.60467555 15.47953033 17.74716187 C14.10781086 16.37410476 12.73459462 15.00254133 11.35988617 13.63247681 C9.44436421 11.72200904 7.53532919 9.80529123 5.62792969 7.88671875 C5.05446808 7.3173056 4.48100647 6.74789246 3.89016724 6.16122437 C0 2.22853085 0 2.22853085 0 0 Z " fill="#148EA6" transform="translate(235,407)"/>
<path d="M0 0 C3.78866894 1.57075912 6.18111877 3.93959057 9.05639648 6.8293457 C9.54638123 7.31903839 10.03636597 7.80873108 10.54119873 8.31326294 C12.15595123 9.92940579 13.763504 11.552516 15.37109375 13.17578125 C16.49639287 14.30481435 17.62213722 15.43340385 18.74830627 16.56156921 C21.7116063 19.5324986 24.66885796 22.50937817 27.62487793 25.48754883 C30.62198228 28.5050389 33.62467933 31.51695169 36.62695312 34.52929688 C41.91895149 39.84042383 47.20599728 45.15643723 52.48948669 50.47602844 C57.11044139 55.13843296 57.11044139 55.13843296 61.80078125 59.73046875 C63.23804584 61.11573927 64.62092884 62.556786 66 64 C66 64.66 66 65.32 66 66 C23.1 66 -19.8 66 -64 66 C-62.28771067 62.57542133 -61.12304686 60.85081765 -58.5 58.25 C-57.8915625 57.63640625 -57.283125 57.0228125 -56.65625 56.390625 C-55 55 -55 55 -53 55 C-52.65686264 54.16888702 -52.65686264 54.16888702 -52.30679321 53.32098389 C-50.62727033 50.33799813 -48.5191482 48.28013762 -46.09130859 45.86425781 C-45.59358444 45.36624161 -45.09586029 44.8682254 -44.58305359 44.3551178 C-42.9428793 42.71633267 -41.29574339 41.08473866 -39.6484375 39.453125 C-38.50742744 38.31584653 -37.36685923 37.1781246 -36.22671509 36.03997803 C-33.22921238 33.05010021 -30.22575149 30.06627809 -27.2210083 27.0836792 C-24.15413288 24.03728679 -21.09293306 20.98520297 -18.03125 17.93359375 C-12.02637217 11.95014566 -6.01518768 5.97308337 0 0 Z " fill="#148FA7" transform="translate(299,127)"/>
<path d="M0 0 C0 18.81 0 37.62 0 57 C-19.8 57 -39.6 57 -60 57 C-53.32975295 49.21804511 -53.32975295 49.21804511 -50.3125 46.75 C-44.90496539 42.14434315 -39.98252411 37.05365464 -35 32 C-29.43955821 26.36017733 -23.88278905 20.79051452 -17.85839844 15.64013672 C-13.95016233 12.19090784 -10.38238624 8.38067633 -6.76171875 4.63476562 C-6.17261719 4.03470703 -5.58351562 3.43464844 -4.9765625 2.81640625 C-4.45143066 2.27443604 -3.92629883 1.73246582 -3.38525391 1.17407227 C-2 0 -2 0 0 0 Z " fill="#060606" transform="translate(229,231)"/>
<path d="M0 0 C26.07 0 52.14 0 79 0 C79 61.71 79 123.42 79 187 C52.93 187 26.86 187 0 187 C0 140.14 0 93.28 0 45 C7.92 45 15.84 45 24 45 C24 84.27 24 123.54 24 164 C34.23 164 44.46 164 55 164 C55 117.14 55 70.28 55 22 C36.85 22 18.7 22 0 22 C0 14.74 0 7.48 0 0 Z M2 2 C2 7.94 2 13.88 2 20 C19.82 20.33 37.64 20.66 56 21 C56 68.52 56 116.04 56 165 C40.16 165.495 40.16 165.495 24 166 C23.67 126.4 23.34 86.8 23 46 C15.74 46 8.48 46 1 46 C1 91.87 1 137.74 1 185 C26.08 184.67 51.16 184.34 77 184 C77 123.94 77 63.88 77 2 C52.25 2 27.5 2 2 2 Z " fill="#26788A" transform="translate(260,207)"/>
<path d="M0 0 C3.76384049 1.88192025 5.60087034 3.37733037 8.484375 6.32421875 C9.76441406 7.62069336 9.76441406 7.62069336 11.0703125 8.94335938 C11.95460938 9.84892578 12.83890625 10.75449219 13.75 11.6875 C19.13020546 17.17546922 24.44885946 22.58414228 30.41503906 27.44067383 C32.15671983 29.15418508 33.03421779 30.77032116 34 33 C32.83687329 34.19096751 31.66923328 35.37752704 30.5 36.5625 C29.8503125 37.22378906 29.200625 37.88507813 28.53125 38.56640625 C26.47994121 40.53857504 24.39804469 42.39655652 22.2421875 44.25 C17.03411225 48.77091553 12.27373166 53.70945061 7.47265625 58.65429688 C6.45365234 59.68973633 6.45365234 59.68973633 5.4140625 60.74609375 C4.8051416 61.37185303 4.1962207 61.9976123 3.56884766 62.64233398 C2 64 2 64 0 64 C0 42.88 0 21.76 0 0 Z " fill="#F7F7F7" transform="translate(442,268)"/>
<path d="M0 0 C42.9 0 85.8 0 130 0 C129.34 1.32 128.68 2.64 128 4 C127.34 4 126.68 4 126 4 C126 3.34 126 2.68 126 2 C86.07 2 46.14 2 5 2 C10.5814187 8.41969762 10.5814187 8.41969762 16.4375 14.5 C17.45650391 15.50546875 17.45650391 15.50546875 18.49609375 16.53125 C18.99238281 17.0159375 19.48867187 17.500625 20 18 C19.34 18.66 18.68 19.32 18 20 C14.99196428 17.04974274 11.9949821 14.08850331 9 11.125 C8.14148438 10.28324219 7.28296875 9.44148438 6.3984375 8.57421875 C5.58632812 7.76855469 4.77421875 6.96289062 3.9375 6.1328125 C2.80634766 5.01737061 2.80634766 5.01737061 1.65234375 3.87939453 C0 2 0 2 0 0 Z " fill="#2A8EA5" transform="translate(235,407)"/>
<path d="M0 0 C3.74020498 1.68152073 5.56134348 3.69039473 8 7 C7.01 7.33 6.02 7.66 5 8 C3.35 6.35 1.7 4.7 0 3 C-0.2475 3.5775 -0.495 4.155 -0.75 4.75 C-2.18299988 7.32939979 -3.78424676 9.06121592 -6 11 C-6.66 11 -7.32 11 -8 11 C-8.25136719 11.57492188 -8.50273437 12.14984375 -8.76171875 12.7421875 C-10.16169681 15.29482888 -11.76159549 17.06233122 -13.8125 19.125 C-14.47894531 19.80820313 -15.14539063 20.49140625 -15.83203125 21.1953125 C-18.13068428 23.10878583 -20.23289384 23.93207738 -23 25 C-23.67156616 26.93618425 -23.67156616 26.93618425 -24 29 C-25.55010703 30.91918014 -26.73436384 31.88378418 -29 32.875 C-31.66789355 34.37569012 -32.49058035 36.3928206 -34 39 C-34.66 39 -35.32 39 -36 39 C-36 39.66 -36 40.32 -36 41 C-39.0891349 44.35391789 -42.43868591 47.16921187 -46 50 C-47.0828125 51.11375 -47.0828125 51.11375 -48.1875 52.25 C-50 54 -50 54 -52 54 C-52.10699219 54.59167969 -52.21398437 55.18335938 -52.32421875 55.79296875 C-53.08760545 58.28611028 -53.99875884 59.46202484 -55.8125 61.3125 C-56.31394531 61.84488281 -56.81539062 62.37726563 -57.33203125 62.92578125 C-59 64 -59 64 -61.19921875 63.66796875 C-62.09060547 63.33732422 -62.09060547 63.33732422 -63 63 C-61.71451591 61.66070495 -60.42141845 60.32871357 -59.125 59 C-58.40570313 58.2575 -57.68640625 57.515 -56.9453125 56.75 C-55 55 -55 55 -53 55 C-52.65686264 54.16888702 -52.65686264 54.16888702 -52.30679321 53.32098389 C-50.62727033 50.33799813 -48.5191482 48.28013762 -46.09130859 45.86425781 C-45.59358444 45.36624161 -45.09586029 44.8682254 -44.58305359 44.3551178 C-42.9428793 42.71633267 -41.29574339 41.08473866 -39.6484375 39.453125 C-38.50742744 38.31584653 -37.36685923 37.1781246 -36.22671509 36.03997803 C-33.22921238 33.05010021 -30.22575149 30.06627809 -27.2210083 27.0836792 C-24.15413288 24.03728679 -21.09293306 20.98520297 -18.03125 17.93359375 C-12.02637217 11.95014566 -6.01518768 5.97308337 0 0 Z " fill="#227A8C" transform="translate(299,127)"/>
<path d="M0 0 C4.13639336 1.59092052 7.23213248 4.60474918 10 8 C10 8.66 10 9.32 10 10 C-32.9 10 -75.8 10 -120 10 C-119.67 9.34 -119.34 8.68 -119 8 C-77.75 8 -36.5 8 6 8 C4.02 6.02 2.04 4.04 0 2 C0 1.34 0 0.68 0 0 Z " fill="#2A6878" transform="translate(355,183)"/>
<path d="M0 0 C3.43198603 1.23932829 6.30325632 2.50301511 9 5 C9 5.99 9 6.98 9 8 C9.556875 8.2475 10.11375 8.495 10.6875 8.75 C15.53100391 11.36811022 18.93530512 14.9094219 22.375 19.12109375 C24.46738266 21.5404112 26.72674961 23.74882001 29 26 C30.28378508 27.30477757 31.56622892 28.61087555 32.84765625 29.91796875 C34.25250167 31.34124701 35.65745184 32.76442189 37.0625 34.1875 C37.76955078 34.91130859 38.47660156 35.63511719 39.20507812 36.38085938 C39.89150391 37.07373047 40.57792969 37.76660156 41.28515625 38.48046875 C41.90269775 39.10848389 42.52023926 39.73649902 43.15649414 40.38354492 C45.0133567 42.01171165 46.74940987 43.00695547 49 44 C47.68 44.66 46.36 45.32 45 46 C39.12980414 40.1529263 33.26227795 34.30319238 27.39818573 28.4499979 C24.6754678 25.73250908 21.95182313 23.01596256 19.22607422 20.30151367 C16.59793782 17.68420516 13.97221823 15.06449485 11.34819031 12.44306755 C10.34427943 11.4410111 9.33948573 10.43983835 8.33381653 9.43954659 C6.93052954 8.04346866 5.53060515 6.64401319 4.13085938 5.24438477 C3.33143921 4.44718521 2.53201904 3.64998566 1.70837402 2.82862854 C0 1 0 1 0 0 Z " fill="#257787" transform="translate(254,427)"/>
<path d="M0 0 C42.9 0 85.8 0 130 0 C129.34 1.32 128.68 2.64 128 4 C127.505 2.515 127.505 2.515 127 1 C64.135 1.495 64.135 1.495 0 2 C0 1.34 0 0.68 0 0 Z " fill="#2E6B79" transform="translate(235,407)"/>
<path d="M0 0 C7.15801225 5.82628904 13.52591766 12.4382985 20 19 C19.34 19.66 18.68 20.32 18 21 C12.76033954 16.72272616 8.32553441 12.19278265 4 7 C3.195625 6.05125 2.39125 5.1025 1.5625 4.125 C0 2 0 2 0 0 Z " fill="#247788" transform="translate(334,161)"/>
<path d="M0 0 C4 0 4 0 5.640625 1.46875 C6.17171875 2.1390625 6.7028125 2.809375 7.25 3.5 C10.91187886 7.94826934 14.88067972 11.97697551 19 16 C18.34 16.66 17.68 17.32 17 18 C14.16266225 15.19151503 11.33081251 12.37756077 8.5 9.5625 C7.68917969 8.76005859 6.87835938 7.95761719 6.04296875 7.13085938 C5.27597656 6.36708984 4.50898438 5.60332031 3.71875 4.81640625 C3.00654297 4.10943604 2.29433594 3.40246582 1.56054688 2.67407227 C0 1 0 1 0 0 Z " fill="#247788" transform="translate(236,409)"/>
<path d="M0 0 C0.66 0.33 1.32 0.66 2 1 C0.73548068 2.31858428 -0.53685475 3.62967631 -1.8125 4.9375 C-2.52019531 5.66839844 -3.22789062 6.39929688 -3.95703125 7.15234375 C-6 9 -6 9 -9 10 C-8.52695318 5.74257863 -6.1136178 3.74294902 -3 1 C-2.01 0.67 -1.02 0.34 0 0 Z " fill="#208194" transform="translate(287,141)"/>
<path d="M0 0 C4.52615993 3.67832017 8.39424999 7.41086363 12 12 C9 12 9 12 6.9921875 10.390625 C6.29351562 9.68421875 5.59484375 8.9778125 4.875 8.25 C4.17117188 7.55390625 3.46734375 6.8578125 2.7421875 6.140625 C1.00172343 4.00211758 0.39999831 2.69089773 0 0 Z " fill="#247686" transform="translate(310,137)"/>
<path d="M0 0 C3.81936528 1.55603771 6.26044438 3.95604931 9 7 C9 7.66 9 8.32 9 9 C5.18063472 7.44396229 2.73955562 5.04395069 0 2 C0 1.34 0 0.68 0 0 Z " fill="#277789" transform="translate(355,183)"/>
<path d="M0 0 C3.7952131 1.49097658 5.61042731 3.75700849 8 7 C7.01 7.33 6.02 7.66 5 8 C4.38125 7.21625 3.7625 6.4325 3.125 5.625 C1.10141339 3.03162353 1.10141339 3.03162353 -1 1 C-0.67 0.67 -0.34 0.34 0 0 Z " fill="#267383" transform="translate(299,127)"/>
<path d="M0 0 C2.31 1.98 4.62 3.96 7 6 C6.34 6.66 5.68 7.32 5 8 C0 2.25 0 2.25 0 0 Z " fill="#247484" transform="translate(322,149)"/>
</svg>
